ISO-10303-21;
HEADER;
FILE_DESCRIPTION(('ViewDefinition [CoordinationView]'),'2;1');
FILE_NAME('','2026-09-18T12:01:18',(''),(''),'IfcOpenShell 0.8.5-1c5b825','IfcOpenShell 0.8.5-1c5b825','');
FILE_SCHEMA(('IFC4'));
ENDSEC;
DATA;
#1=IFCSIUNIT(*,.LENGTHUNIT.,$,.METRE.);
#2=IFCUNITASSIGNMENT((#1));
#3=IFCCARTESIANPOINT((0.,0.,0.));
#4=IFCDIRECTION((0.,0.,1.));
#5=IFCDIRECTION((1.,0.,0.));
#6=IFCAXIS2PLACEMENT3D(#3,#4,#5);
#7=IFCGEOMETRICREPRESENTATIONCONTEXT('Model','Model',3,9.9999999999999995E-08,#6,$);
#8=IFCPROJECT('3O3u5t15fLlw7Y4xX4rD1s',$,'clearance089',$,$,$,$,(#7),#2);
#9=IFCCARTESIANPOINT((0.,0.,0.));
#10=IFCDIRECTION((0.,0.,1.));
#11=IFCDIRECTION((1.,0.,0.));
#12=IFCAXIS2PLACEMENT3D(#9,#10,#11);
#13=IFCLOCALPLACEMENT($,#12);
#14=IFCBUILDING('14lYttxL1K7B7t1WDXsChl',$,'Synthetic building',$,$,#13,$,$,$,$,$,$);
#15=IFCCARTESIANPOINT((0.,0.,0.));
#16=IFCDIRECTION((0.,0.,1.));
#17=IFCDIRECTION((1.,0.,0.));
#18=IFCAXIS2PLACEMENT3D(#15,#16,#17);
#19=IFCLOCALPLACEMENT(#13,#18);
#20=IFCBUILDINGSTOREY('3OkoWKTCrRPwR7Le5t1oe5',$,'Synthetic level',$,$,#19,$,$,$,$);
#21=IFCRELAGGREGATES('04YkbPxAnIz9avmwrqiEtC',$,$,$,#8,(#14));
#22=IFCRELAGGREGATES('2VeOBC7frOkfEUaSZtZbD0',$,$,$,#14,(#20));
#23=IFCRECTANGLEPROFILEDEF(.AREA.,$,$,12.,10.);
#24=IFCCARTESIANPOINT((0.,0.,0.));
#25=IFCDIRECTION((0.,0.,1.));
#26=IFCDIRECTION((1.,0.,0.));
#27=IFCAXIS2PLACEMENT3D(#24,#25,#26);
#28=IFCDIRECTION((0.,0.,1.));
#29=IFCEXTRUDEDAREASOLID(#23,#27,#28,0.10000000000000001);
#30=IFCSHAPEREPRESENTATION(#7,'Body','SweptSolid',(#29));
#31=IFCCARTESIANPOINT((6.,5.,-0.10000000000000001));
#32=IFCDIRECTION((0.,0.,1.));
#33=IFCDIRECTION((1.,0.,0.));
#34=IFCAXIS2PLACEMENT3D(#31,#32,#33);
#35=IFCLOCALPLACEMENT(#19,#34);
#36=IFCPRODUCTDEFINITIONSHAPE($,$,(#30));
#37=IFCBUILDINGELEMENTPROXY('1sJ32Z4mDHteojZMLTIc$Y',$,'floor',$,'SYNTHETIC',#35,#36,$,$);
#38=IFCRECTANGLEPROFILEDEF(.AREA.,$,$,1.8,0.80000000000000004);
#39=IFCCARTESIANPOINT((0.,0.,0.));
#40=IFCDIRECTION((0.,0.,1.));
#41=IFCDIRECTION((1.,0.,0.));
#42=IFCAXIS2PLACEMENT3D(#39,#40,#41);
#43=IFCDIRECTION((0.,0.,1.));
#44=IFCEXTRUDEDAREASOLID(#38,#42,#43,1.3999999999999999);
#45=IFCSHAPEREPRESENTATION(#7,'Body','SweptSolid',(#44));
#46=IFCCARTESIANPOINT((1.5,5.,0.));
#47=IFCDIRECTION((0.,0.,1.));
#48=IFCDIRECTION((6.123233995736766E-17,1.,0.));
#49=IFCAXIS2PLACEMENT3D(#46,#47,#48);
#50=IFCLOCALPLACEMENT(#19,#49);
#51=IFCPRODUCTDEFINITIONSHAPE($,$,(#45));
#52=IFCBUILDINGELEMENTPROXY('02kZuA5W5KjBANoAxTOAaN',$,'equipment',$,'SYNTHETIC',#50,#51,$,$);
#53=IFCRECTANGLEPROFILEDEF(.AREA.,$,$,0.20000000000000001,4.5549999999999997);
#54=IFCCARTESIANPOINT((0.,0.,0.));
#55=IFCDIRECTION((0.,0.,1.));
#56=IFCDIRECTION((1.,0.,0.));
#57=IFCAXIS2PLACEMENT3D(#54,#55,#56);
#58=IFCDIRECTION((0.,0.,1.));
#59=IFCEXTRUDEDAREASOLID(#53,#57,#58,3.);
#60=IFCSHAPEREPRESENTATION(#7,'Body','SweptSolid',(#59));
#61=IFCCARTESIANPOINT((6.,2.2774999999999999,0.));
#62=IFCDIRECTION((0.,0.,1.));
#63=IFCDIRECTION((1.,0.,0.));
#64=IFCAXIS2PLACEMENT3D(#61,#62,#63);
#65=IFCLOCALPLACEMENT(#19,#64);
#66=IFCPRODUCTDEFINITIONSHAPE($,$,(#60));
#67=IFCBUILDINGELEMENTPROXY('2De12V0urOYfgpwB5GRH2D',$,'wall-6-0',$,'SYNTHETIC',#65,#66,$,$);
#68=IFCRECTANGLEPROFILEDEF(.AREA.,$,$,0.20000000000000001,4.5549999999999997);
#69=IFCCARTESIANPOINT((0.,0.,0.));
#70=IFCDIRECTION((0.,0.,1.));
#71=IFCDIRECTION((1.,0.,0.));
#72=IFCAXIS2PLACEMENT3D(#69,#70,#71);
#73=IFCDIRECTION((0.,0.,1.));
#74=IFCEXTRUDEDAREASOLID(#68,#72,#73,3.);
#75=IFCSHAPEREPRESENTATION(#7,'Body','SweptSolid',(#74));
#76=IFCCARTESIANPOINT((6.,7.7225000000000001,0.));
#77=IFCDIRECTION((0.,0.,1.));
#78=IFCDIRECTION((1.,0.,0.));
#79=IFCAXIS2PLACEMENT3D(#76,#77,#78);
#80=IFCLOCALPLACEMENT(#19,#79);
#81=IFCPRODUCTDEFINITIONSHAPE($,$,(#75));
#82=IFCBUILDINGELEMENTPROXY('2HgD7TN0nKyvXBO0QDl5Hp',$,'wall-6-end',$,'SYNTHETIC',#80,#81,$,$);
#83=IFCRELCONTAINEDINSPATIALSTRUCTURE('0kKh8BWC1Tjg6aQEETQ63S',$,$,$,(#37,#52,#67,#82),#20);
ENDSEC;
END-ISO-10303-21;
