ISO-10303-21;
HEADER;
FILE_DESCRIPTION(('ViewDefinition [CoordinationView]'),'2;1');
FILE_NAME('','2026-09-18T12:01:18',(''),(''),'IfcOpenShell 0.8.5-1c5b825','IfcOpenShell 0.8.5-1c5b825','');
FILE_SCHEMA(('IFC4'));
ENDSEC;
DATA;
#1=IFCSIUNIT(*,.LENGTHUNIT.,$,.METRE.);
#2=IFCUNITASSIGNMENT((#1));
#3=IFCCARTESIANPOINT((0.,0.,0.));
#4=IFCDIRECTION((0.,0.,1.));
#5=IFCDIRECTION((1.,0.,0.));
#6=IFCAXIS2PLACEMENT3D(#3,#4,#5);
#7=IFCGEOMETRICREPRESENTATIONCONTEXT('Model','Model',3,9.9999999999999995E-08,#6,$);
#8=IFCPROJECT('2NhIGB$JfLhgaomLg8MgbW',$,'random-7308',$,$,$,$,(#7),#2);
#9=IFCCARTESIANPOINT((0.,0.,0.));
#10=IFCDIRECTION((0.,0.,1.));
#11=IFCDIRECTION((1.,0.,0.));
#12=IFCAXIS2PLACEMENT3D(#9,#10,#11);
#13=IFCLOCALPLACEMENT($,#12);
#14=IFCBUILDING('3bDTjlkGjSVvaAG__qImAh',$,'Synthetic building',$,$,#13,$,$,$,$,$,$);
#15=IFCCARTESIANPOINT((0.,0.,0.));
#16=IFCDIRECTION((0.,0.,1.));
#17=IFCDIRECTION((1.,0.,0.));
#18=IFCAXIS2PLACEMENT3D(#15,#16,#17);
#19=IFCLOCALPLACEMENT(#13,#18);
#20=IFCBUILDINGSTOREY('3gIrkuzHfUqA29ltL1LRKQ',$,'Synthetic level',$,$,#19,$,$,$,$);
#21=IFCRELAGGREGATES('2MFQw4$nXMoxU3iLbvHO1y',$,$,$,#8,(#14));
#22=IFCRELAGGREGATES('0gCA9nPQ9IluzhU0wLMOwU',$,$,$,#14,(#20));
#23=IFCRECTANGLEPROFILEDEF(.AREA.,$,$,12.,10.);
#24=IFCCARTESIANPOINT((0.,0.,0.));
#25=IFCDIRECTION((0.,0.,1.));
#26=IFCDIRECTION((1.,0.,0.));
#27=IFCAXIS2PLACEMENT3D(#24,#25,#26);
#28=IFCDIRECTION((0.,0.,1.));
#29=IFCEXTRUDEDAREASOLID(#23,#27,#28,0.10000000000000001);
#30=IFCSHAPEREPRESENTATION(#7,'Body','SweptSolid',(#29));
#31=IFCCARTESIANPOINT((6.,5.,-0.10000000000000001));
#32=IFCDIRECTION((0.,0.,1.));
#33=IFCDIRECTION((1.,0.,0.));
#34=IFCAXIS2PLACEMENT3D(#31,#32,#33);
#35=IFCLOCALPLACEMENT(#19,#34);
#36=IFCPRODUCTDEFINITIONSHAPE($,$,(#30));
#37=IFCBUILDINGELEMENTPROXY('02tSarNh9Huw5Vq8cDupyU',$,'floor',$,'SYNTHETIC',#35,#36,$,$);
#38=IFCRECTANGLEPROFILEDEF(.AREA.,$,$,1.6864716203991028,0.69662604629766411);
#39=IFCCARTESIANPOINT((0.,0.,0.));
#40=IFCDIRECTION((0.,0.,1.));
#41=IFCDIRECTION((1.,0.,0.));
#42=IFCAXIS2PLACEMENT3D(#39,#40,#41);
#43=IFCDIRECTION((0.,0.,1.));
#44=IFCEXTRUDEDAREASOLID(#38,#42,#43,1.3999999999999999);
#45=IFCSHAPEREPRESENTATION(#7,'Body','SweptSolid',(#44));
#46=IFCCARTESIANPOINT((1.5,5.,0.));
#47=IFCDIRECTION((0.,0.,1.));
#48=IFCDIRECTION((1.,0.,0.));
#49=IFCAXIS2PLACEMENT3D(#46,#47,#48);
#50=IFCLOCALPLACEMENT(#19,#49);
#51=IFCPRODUCTDEFINITIONSHAPE($,$,(#45));
#52=IFCBUILDINGELEMENTPROXY('0pk_CRtl5NRQUKqTPLrLZA',$,'equipment',$,'SYNTHETIC',#50,#51,$,$);
#53=IFCRECTANGLEPROFILEDEF(.AREA.,$,$,0.20000000000000001,1.4130737924140668);
#54=IFCCARTESIANPOINT((0.,0.,0.));
#55=IFCDIRECTION((0.,0.,1.));
#56=IFCDIRECTION((1.,0.,0.));
#57=IFCAXIS2PLACEMENT3D(#54,#55,#56);
#58=IFCDIRECTION((0.,0.,1.));
#59=IFCEXTRUDEDAREASOLID(#53,#57,#58,3.);
#60=IFCSHAPEREPRESENTATION(#7,'Body','SweptSolid',(#59));
#61=IFCCARTESIANPOINT((4.,0.70653689620703342,0.));
#62=IFCDIRECTION((0.,0.,1.));
#63=IFCDIRECTION((1.,0.,0.));
#64=IFCAXIS2PLACEMENT3D(#61,#62,#63);
#65=IFCLOCALPLACEMENT(#19,#64);
#66=IFCPRODUCTDEFINITIONSHAPE($,$,(#60));
#67=IFCBUILDINGELEMENTPROXY('3OdL8g_zXKbQ9JmQnJ8Gwf',$,'wall-4-0',$,'SYNTHETIC',#65,#66,$,$);
#68=IFCRECTANGLEPROFILEDEF(.AREA.,$,$,0.20000000000000001,1.3999999999999999);
#69=IFCCARTESIANPOINT((0.,0.,0.));
#70=IFCDIRECTION((0.,0.,1.));
#71=IFCDIRECTION((1.,0.,0.));
#72=IFCAXIS2PLACEMENT3D(#69,#70,#71);
#73=IFCDIRECTION((0.,0.,1.));
#74=IFCEXTRUDEDAREASOLID(#68,#72,#73,3.);
#75=IFCSHAPEREPRESENTATION(#7,'Body','SweptSolid',(#74));
#76=IFCCARTESIANPOINT((4.,2.1130737924140668,0.));
#77=IFCDIRECTION((0.,0.,1.));
#78=IFCDIRECTION((1.,0.,0.));
#79=IFCAXIS2PLACEMENT3D(#76,#77,#78);
#80=IFCLOCALPLACEMENT(#19,#79);
#81=IFCPRODUCTDEFINITIONSHAPE($,$,(#75));
#82=IFCBUILDINGELEMENTPROXY('38un28hYzUAQrOxODvZ5xG',$,'panel-4-0',$,'SYNTHETIC',#80,#81,$,$);
#83=IFCRECTANGLEPROFILEDEF(.AREA.,$,$,0.20000000000000001,1.5038062252476667);
#84=IFCCARTESIANPOINT((0.,0.,0.));
#85=IFCDIRECTION((0.,0.,1.));
#86=IFCDIRECTION((1.,0.,0.));
#87=IFCAXIS2PLACEMENT3D(#84,#85,#86);
#88=IFCDIRECTION((0.,0.,1.));
#89=IFCEXTRUDEDAREASOLID(#83,#87,#88,3.);
#90=IFCSHAPEREPRESENTATION(#7,'Body','SweptSolid',(#89));
#91=IFCCARTESIANPOINT((4.,3.5649769050379003,0.));
#92=IFCDIRECTION((0.,0.,1.));
#93=IFCDIRECTION((1.,0.,0.));
#94=IFCAXIS2PLACEMENT3D(#91,#92,#93);
#95=IFCLOCALPLACEMENT(#19,#94);
#96=IFCPRODUCTDEFINITIONSHAPE($,$,(#90));
#97=IFCBUILDINGELEMENTPROXY('04qdn4lw5HaeP3wIwD58pA',$,'wall-4-1',$,'SYNTHETIC',#95,#96,$,$);
#98=IFCRECTANGLEPROFILEDEF(.AREA.,$,$,0.20000000000000001,1.3999999999999999);
#99=IFCCARTESIANPOINT((0.,0.,0.));
#100=IFCDIRECTION((0.,0.,1.));
#101=IFCDIRECTION((1.,0.,0.));
#102=IFCAXIS2PLACEMENT3D(#99,#100,#101);
#103=IFCDIRECTION((0.,0.,1.));
#104=IFCEXTRUDEDAREASOLID(#98,#102,#103,3.);
#105=IFCSHAPEREPRESENTATION(#7,'Body','SweptSolid',(#104));
#106=IFCCARTESIANPOINT((4.,5.0168800176617339,0.));
#107=IFCDIRECTION((0.,0.,1.));
#108=IFCDIRECTION((1.,0.,0.));
#109=IFCAXIS2PLACEMENT3D(#106,#107,#108);
#110=IFCLOCALPLACEMENT(#19,#109);
#111=IFCPRODUCTDEFINITIONSHAPE($,$,(#105));
#112=IFCBUILDINGELEMENTPROXY('3odqsUiinKl9dYeKZAYupM',$,'panel-4-1',$,'SYNTHETIC',#110,#111,$,$);
#113=IFCRECTANGLEPROFILEDEF(.AREA.,$,$,0.20000000000000001,1.5554415190106248);
#114=IFCCARTESIANPOINT((0.,0.,0.));
#115=IFCDIRECTION((0.,0.,1.));
#116=IFCDIRECTION((1.,0.,0.));
#117=IFCAXIS2PLACEMENT3D(#114,#115,#116);
#118=IFCDIRECTION((0.,0.,1.));
#119=IFCEXTRUDEDAREASOLID(#113,#117,#118,3.);
#120=IFCSHAPEREPRESENTATION(#7,'Body','SweptSolid',(#119));
#121=IFCCARTESIANPOINT((4.,6.4946007771670464,0.));
#122=IFCDIRECTION((0.,0.,1.));
#123=IFCDIRECTION((1.,0.,0.));
#124=IFCAXIS2PLACEMENT3D(#121,#122,#123);
#125=IFCLOCALPLACEMENT(#19,#124);
#126=IFCPRODUCTDEFINITIONSHAPE($,$,(#120));
#127=IFCBUILDINGELEMENTPROXY('0f8Mno3WXOKvaEB7yxrTj8',$,'wall-4-2',$,'SYNTHETIC',#125,#126,$,$);
#128=IFCRECTANGLEPROFILEDEF(.AREA.,$,$,0.20000000000000001,1.3999999999999999);
#129=IFCCARTESIANPOINT((0.,0.,0.));
#130=IFCDIRECTION((0.,0.,1.));
#131=IFCDIRECTION((1.,0.,0.));
#132=IFCAXIS2PLACEMENT3D(#129,#130,#131);
#133=IFCDIRECTION((0.,0.,1.));
#134=IFCEXTRUDEDAREASOLID(#128,#132,#133,3.);
#135=IFCSHAPEREPRESENTATION(#7,'Body','SweptSolid',(#134));
#136=IFCCARTESIANPOINT((4.,7.972321536672359,0.));
#137=IFCDIRECTION((0.,0.,1.));
#138=IFCDIRECTION((1.,0.,0.));
#139=IFCAXIS2PLACEMENT3D(#136,#137,#138);
#140=IFCLOCALPLACEMENT(#19,#139);
#141=IFCPRODUCTDEFINITIONSHAPE($,$,(#135));
#142=IFCBUILDINGELEMENTPROXY('33hxAKc3fMeORsnaBhEWiG',$,'panel-4-2',$,'SYNTHETIC',#140,#141,$,$);
#143=IFCRECTANGLEPROFILEDEF(.AREA.,$,$,0.20000000000000001,1.3276784633276417);
#144=IFCCARTESIANPOINT((0.,0.,0.));
#145=IFCDIRECTION((0.,0.,1.));
#146=IFCDIRECTION((1.,0.,0.));
#147=IFCAXIS2PLACEMENT3D(#144,#145,#146);
#148=IFCDIRECTION((0.,0.,1.));
#149=IFCEXTRUDEDAREASOLID(#143,#147,#148,3.);
#150=IFCSHAPEREPRESENTATION(#7,'Body','SweptSolid',(#149));
#151=IFCCARTESIANPOINT((4.,9.3361607683361783,0.));
#152=IFCDIRECTION((0.,0.,1.));
#153=IFCDIRECTION((1.,0.,0.));
#154=IFCAXIS2PLACEMENT3D(#151,#152,#153);
#155=IFCLOCALPLACEMENT(#19,#154);
#156=IFCPRODUCTDEFINITIONSHAPE($,$,(#150));
#157=IFCBUILDINGELEMENTPROXY('1d$fRxReDRn8UTU8cxnBvC',$,'wall-4-end',$,'SYNTHETIC',#155,#156,$,$);
#158=IFCRECTANGLEPROFILEDEF(.AREA.,$,$,0.20000000000000001,1.3175585275146824);
#159=IFCCARTESIANPOINT((0.,0.,0.));
#160=IFCDIRECTION((0.,0.,1.));
#161=IFCDIRECTION((1.,0.,0.));
#162=IFCAXIS2PLACEMENT3D(#159,#160,#161);
#163=IFCDIRECTION((0.,0.,1.));
#164=IFCEXTRUDEDAREASOLID(#158,#162,#163,3.);
#165=IFCSHAPEREPRESENTATION(#7,'Body','SweptSolid',(#164));
#166=IFCCARTESIANPOINT((8.,0.65877926375734119,0.));
#167=IFCDIRECTION((0.,0.,1.));
#168=IFCDIRECTION((1.,0.,0.));
#169=IFCAXIS2PLACEMENT3D(#166,#167,#168);
#170=IFCLOCALPLACEMENT(#19,#169);
#171=IFCPRODUCTDEFINITIONSHAPE($,$,(#165));
#172=IFCBUILDINGELEMENTPROXY('2LOy69IDfRZQ5S3kTerBil',$,'wall-8-0',$,'SYNTHETIC',#170,#171,$,$);
#173=IFCRECTANGLEPROFILEDEF(.AREA.,$,$,0.20000000000000001,1.3999999999999999);
#174=IFCCARTESIANPOINT((0.,0.,0.));
#175=IFCDIRECTION((0.,0.,1.));
#176=IFCDIRECTION((1.,0.,0.));
#177=IFCAXIS2PLACEMENT3D(#174,#175,#176);
#178=IFCDIRECTION((0.,0.,1.));
#179=IFCEXTRUDEDAREASOLID(#173,#177,#178,3.);
#180=IFCSHAPEREPRESENTATION(#7,'Body','SweptSolid',(#179));
#181=IFCCARTESIANPOINT((8.,2.0175585275146823,0.));
#182=IFCDIRECTION((0.,0.,1.));
#183=IFCDIRECTION((1.,0.,0.));
#184=IFCAXIS2PLACEMENT3D(#181,#182,#183);
#185=IFCLOCALPLACEMENT(#19,#184);
#186=IFCPRODUCTDEFINITIONSHAPE($,$,(#180));
#187=IFCBUILDINGELEMENTPROXY('2X4oSwxNfUvBvasyddj09v',$,'panel-8-0',$,'SYNTHETIC',#185,#186,$,$);
#188=IFCRECTANGLEPROFILEDEF(.AREA.,$,$,0.20000000000000001,1.6207592996448605);
#189=IFCCARTESIANPOINT((0.,0.,0.));
#190=IFCDIRECTION((0.,0.,1.));
#191=IFCDIRECTION((1.,0.,0.));
#192=IFCAXIS2PLACEMENT3D(#189,#190,#191);
#193=IFCDIRECTION((0.,0.,1.));
#194=IFCEXTRUDEDAREASOLID(#188,#192,#193,3.);
#195=IFCSHAPEREPRESENTATION(#7,'Body','SweptSolid',(#194));
#196=IFCCARTESIANPOINT((8.,3.5279381773371123,0.));
#197=IFCDIRECTION((0.,0.,1.));
#198=IFCDIRECTION((1.,0.,0.));
#199=IFCAXIS2PLACEMENT3D(#196,#197,#198);
#200=IFCLOCALPLACEMENT(#19,#199);
#201=IFCPRODUCTDEFINITIONSHAPE($,$,(#195));
#202=IFCBUILDINGELEMENTPROXY('3JYRAHkc1R8BejnXBkVutq',$,'wall-8-1',$,'SYNTHETIC',#200,#201,$,$);
#203=IFCRECTANGLEPROFILEDEF(.AREA.,$,$,0.20000000000000001,1.3999999999999999);
#204=IFCCARTESIANPOINT((0.,0.,0.));
#205=IFCDIRECTION((0.,0.,1.));
#206=IFCDIRECTION((1.,0.,0.));
#207=IFCAXIS2PLACEMENT3D(#204,#205,#206);
#208=IFCDIRECTION((0.,0.,1.));
#209=IFCEXTRUDEDAREASOLID(#203,#207,#208,3.);
#210=IFCSHAPEREPRESENTATION(#7,'Body','SweptSolid',(#209));
#211=IFCCARTESIANPOINT((8.,5.0383178271595428,0.));
#212=IFCDIRECTION((0.,0.,1.));
#213=IFCDIRECTION((1.,0.,0.));
#214=IFCAXIS2PLACEMENT3D(#211,#212,#213);
#215=IFCLOCALPLACEMENT(#19,#214);
#216=IFCPRODUCTDEFINITIONSHAPE($,$,(#210));
#217=IFCBUILDINGELEMENTPROXY('3shMfQikXOsPxVRpfga8ob',$,'panel-8-1',$,'SYNTHETIC',#215,#216,$,$);
#218=IFCRECTANGLEPROFILEDEF(.AREA.,$,$,0.20000000000000001,1.4829538067628709);
#219=IFCCARTESIANPOINT((0.,0.,0.));
#220=IFCDIRECTION((0.,0.,1.));
#221=IFCDIRECTION((1.,0.,0.));
#222=IFCAXIS2PLACEMENT3D(#219,#220,#221);
#223=IFCDIRECTION((0.,0.,1.));
#224=IFCEXTRUDEDAREASOLID(#218,#222,#223,3.);
#225=IFCSHAPEREPRESENTATION(#7,'Body','SweptSolid',(#224));
#226=IFCCARTESIANPOINT((8.,6.4797947305409789,0.));
#227=IFCDIRECTION((0.,0.,1.));
#228=IFCDIRECTION((1.,0.,0.));
#229=IFCAXIS2PLACEMENT3D(#226,#227,#228);
#230=IFCLOCALPLACEMENT(#19,#229);
#231=IFCPRODUCTDEFINITIONSHAPE($,$,(#225));
#232=IFCBUILDINGELEMENTPROXY('1LyvFr8AbLc8LjrZ$JFU8l',$,'wall-8-2',$,'SYNTHETIC',#230,#231,$,$);
#233=IFCRECTANGLEPROFILEDEF(.AREA.,$,$,0.20000000000000001,1.3999999999999999);
#234=IFCCARTESIANPOINT((0.,0.,0.));
#235=IFCDIRECTION((0.,0.,1.));
#236=IFCDIRECTION((1.,0.,0.));
#237=IFCAXIS2PLACEMENT3D(#234,#235,#236);
#238=IFCDIRECTION((0.,0.,1.));
#239=IFCEXTRUDEDAREASOLID(#233,#237,#238,3.);
#240=IFCSHAPEREPRESENTATION(#7,'Body','SweptSolid',(#239));
#241=IFCCARTESIANPOINT((8.,7.9212716339224141,0.));
#242=IFCDIRECTION((0.,0.,1.));
#243=IFCDIRECTION((1.,0.,0.));
#244=IFCAXIS2PLACEMENT3D(#241,#242,#243);
#245=IFCLOCALPLACEMENT(#19,#244);
#246=IFCPRODUCTDEFINITIONSHAPE($,$,(#240));
#247=IFCBUILDINGELEMENTPROXY('0AKab2JxLSmPg4migGpGGW',$,'panel-8-2',$,'SYNTHETIC',#245,#246,$,$);
#248=IFCRECTANGLEPROFILEDEF(.AREA.,$,$,0.20000000000000001,1.3787283660775866);
#249=IFCCARTESIANPOINT((0.,0.,0.));
#250=IFCDIRECTION((0.,0.,1.));
#251=IFCDIRECTION((1.,0.,0.));
#252=IFCAXIS2PLACEMENT3D(#249,#250,#251);
#253=IFCDIRECTION((0.,0.,1.));
#254=IFCEXTRUDEDAREASOLID(#248,#252,#253,3.);
#255=IFCSHAPEREPRESENTATION(#7,'Body','SweptSolid',(#254));
#256=IFCCARTESIANPOINT((8.,9.3106358169612058,0.));
#257=IFCDIRECTION((0.,0.,1.));
#258=IFCDIRECTION((1.,0.,0.));
#259=IFCAXIS2PLACEMENT3D(#256,#257,#258);
#260=IFCLOCALPLACEMENT(#19,#259);
#261=IFCPRODUCTDEFINITIONSHAPE($,$,(#255));
#262=IFCBUILDINGELEMENTPROXY('0d3Xw9UtDVT8qpIoczu_PB',$,'wall-8-end',$,'SYNTHETIC',#260,#261,$,$);
#263=IFCRELCONTAINEDINSPATIALSTRUCTURE('078Nhe8AXK_AkvDqzgJD7E',$,$,$,(#37,#52,#67,#82,#97,#112,#127,#142,#157,#172,#187,#202,#217,#232,#247,#262),#20);
ENDSEC;
END-ISO-10303-21;
