ISO-10303-21;
HEADER;
FILE_DESCRIPTION(('ViewDefinition [CoordinationView]'),'2;1');
FILE_NAME('','2026-09-18T12:01:18',(''),(''),'IfcOpenShell 0.8.5-1c5b825','IfcOpenShell 0.8.5-1c5b825','');
FILE_SCHEMA(('IFC4'));
ENDSEC;
DATA;
#1=IFCSIUNIT(*,.LENGTHUNIT.,$,.METRE.);
#2=IFCUNITASSIGNMENT((#1));
#3=IFCCARTESIANPOINT((0.,0.,0.));
#4=IFCDIRECTION((0.,0.,1.));
#5=IFCDIRECTION((1.,0.,0.));
#6=IFCAXIS2PLACEMENT3D(#3,#4,#5);
#7=IFCGEOMETRICREPRESENTATIONCONTEXT('Model','Model',3,9.9999999999999995E-08,#6,$);
#8=IFCPROJECT('03khD7coPRtR72CfSN6IKq',$,'single',$,$,$,$,(#7),#2);
#9=IFCCARTESIANPOINT((0.,0.,0.));
#10=IFCDIRECTION((0.,0.,1.));
#11=IFCDIRECTION((1.,0.,0.));
#12=IFCAXIS2PLACEMENT3D(#9,#10,#11);
#13=IFCLOCALPLACEMENT($,#12);
#14=IFCBUILDING('0UTqgJCT1SGhj45rC2OTmQ',$,'Synthetic building',$,$,#13,$,$,$,$,$,$);
#15=IFCCARTESIANPOINT((0.,0.,0.));
#16=IFCDIRECTION((0.,0.,1.));
#17=IFCDIRECTION((1.,0.,0.));
#18=IFCAXIS2PLACEMENT3D(#15,#16,#17);
#19=IFCLOCALPLACEMENT(#13,#18);
#20=IFCBUILDINGSTOREY('0nv4V87EvNZRLOGAoZ1CMJ',$,'Synthetic level',$,$,#19,$,$,$,$);
#21=IFCRELAGGREGATES('15P$_0Dl9IMvqzyHOmdGFb',$,$,$,#8,(#14));
#22=IFCRELAGGREGATES('1B6eZ5LNLTF9Oux8N_VDx0',$,$,$,#14,(#20));
#23=IFCRECTANGLEPROFILEDEF(.AREA.,$,$,12.,10.);
#24=IFCCARTESIANPOINT((0.,0.,0.));
#25=IFCDIRECTION((0.,0.,1.));
#26=IFCDIRECTION((1.,0.,0.));
#27=IFCAXIS2PLACEMENT3D(#24,#25,#26);
#28=IFCDIRECTION((0.,0.,1.));
#29=IFCEXTRUDEDAREASOLID(#23,#27,#28,0.10000000000000001);
#30=IFCSHAPEREPRESENTATION(#7,'Body','SweptSolid',(#29));
#31=IFCCARTESIANPOINT((6.,5.,-0.10000000000000001));
#32=IFCDIRECTION((0.,0.,1.));
#33=IFCDIRECTION((1.,0.,0.));
#34=IFCAXIS2PLACEMENT3D(#31,#32,#33);
#35=IFCLOCALPLACEMENT(#19,#34);
#36=IFCPRODUCTDEFINITIONSHAPE($,$,(#30));
#37=IFCBUILDINGELEMENTPROXY('3$kCt$QJ9LBe3K7drzq5xO',$,'floor',$,'SYNTHETIC',#35,#36,$,$);
#38=IFCRECTANGLEPROFILEDEF(.AREA.,$,$,1.8,0.80000000000000004);
#39=IFCCARTESIANPOINT((0.,0.,0.));
#40=IFCDIRECTION((0.,0.,1.));
#41=IFCDIRECTION((1.,0.,0.));
#42=IFCAXIS2PLACEMENT3D(#39,#40,#41);
#43=IFCDIRECTION((0.,0.,1.));
#44=IFCEXTRUDEDAREASOLID(#38,#42,#43,1.3999999999999999);
#45=IFCSHAPEREPRESENTATION(#7,'Body','SweptSolid',(#44));
#46=IFCCARTESIANPOINT((1.5,5.,0.));
#47=IFCDIRECTION((0.,0.,1.));
#48=IFCDIRECTION((1.,0.,0.));
#49=IFCAXIS2PLACEMENT3D(#46,#47,#48);
#50=IFCLOCALPLACEMENT(#19,#49);
#51=IFCPRODUCTDEFINITIONSHAPE($,$,(#45));
#52=IFCBUILDINGELEMENTPROXY('3Y4Fbe8V1TR9yAkfYeRZZR',$,'equipment',$,'SYNTHETIC',#50,#51,$,$);
#53=IFCRECTANGLEPROFILEDEF(.AREA.,$,$,0.20000000000000001,1.3);
#54=IFCCARTESIANPOINT((0.,0.,0.));
#55=IFCDIRECTION((0.,0.,1.));
#56=IFCDIRECTION((1.,0.,0.));
#57=IFCAXIS2PLACEMENT3D(#54,#55,#56);
#58=IFCDIRECTION((0.,0.,1.));
#59=IFCEXTRUDEDAREASOLID(#53,#57,#58,3.);
#60=IFCSHAPEREPRESENTATION(#7,'Body','SweptSolid',(#59));
#61=IFCCARTESIANPOINT((6.,0.65000000000000002,0.));
#62=IFCDIRECTION((0.,0.,1.));
#63=IFCDIRECTION((1.,0.,0.));
#64=IFCAXIS2PLACEMENT3D(#61,#62,#63);
#65=IFCLOCALPLACEMENT(#19,#64);
#66=IFCPRODUCTDEFINITIONSHAPE($,$,(#60));
#67=IFCBUILDINGELEMENTPROXY('00hPQIbxTOJvtCA3I_RY2W',$,'wall-6-0',$,'SYNTHETIC',#65,#66,$,$);
#68=IFCRECTANGLEPROFILEDEF(.AREA.,$,$,0.20000000000000001,1.3999999999999999);
#69=IFCCARTESIANPOINT((0.,0.,0.));
#70=IFCDIRECTION((0.,0.,1.));
#71=IFCDIRECTION((1.,0.,0.));
#72=IFCAXIS2PLACEMENT3D(#69,#70,#71);
#73=IFCDIRECTION((0.,0.,1.));
#74=IFCEXTRUDEDAREASOLID(#68,#72,#73,3.);
#75=IFCSHAPEREPRESENTATION(#7,'Body','SweptSolid',(#74));
#76=IFCCARTESIANPOINT((6.,2.,0.));
#77=IFCDIRECTION((0.,0.,1.));
#78=IFCDIRECTION((1.,0.,0.));
#79=IFCAXIS2PLACEMENT3D(#76,#77,#78);
#80=IFCLOCALPLACEMENT(#19,#79);
#81=IFCPRODUCTDEFINITIONSHAPE($,$,(#75));
#82=IFCBUILDINGELEMENTPROXY('12lFrbzo1RGA82wDBe_kSy',$,'panel-6-0',$,'SYNTHETIC',#80,#81,$,$);
#83=IFCRECTANGLEPROFILEDEF(.AREA.,$,$,0.20000000000000001,1.5999999999999996);
#84=IFCCARTESIANPOINT((0.,0.,0.));
#85=IFCDIRECTION((0.,0.,1.));
#86=IFCDIRECTION((1.,0.,0.));
#87=IFCAXIS2PLACEMENT3D(#84,#85,#86);
#88=IFCDIRECTION((0.,0.,1.));
#89=IFCEXTRUDEDAREASOLID(#83,#87,#88,3.);
#90=IFCSHAPEREPRESENTATION(#7,'Body','SweptSolid',(#89));
#91=IFCCARTESIANPOINT((6.,3.5,0.));
#92=IFCDIRECTION((0.,0.,1.));
#93=IFCDIRECTION((1.,0.,0.));
#94=IFCAXIS2PLACEMENT3D(#91,#92,#93);
#95=IFCLOCALPLACEMENT(#19,#94);
#96=IFCPRODUCTDEFINITIONSHAPE($,$,(#90));
#97=IFCBUILDINGELEMENTPROXY('2xL7ii6SfHWOrgCgtqo6DT',$,'wall-6-1',$,'SYNTHETIC',#95,#96,$,$);
#98=IFCRECTANGLEPROFILEDEF(.AREA.,$,$,0.20000000000000001,1.3999999999999999);
#99=IFCCARTESIANPOINT((0.,0.,0.));
#100=IFCDIRECTION((0.,0.,1.));
#101=IFCDIRECTION((1.,0.,0.));
#102=IFCAXIS2PLACEMENT3D(#99,#100,#101);
#103=IFCDIRECTION((0.,0.,1.));
#104=IFCEXTRUDEDAREASOLID(#98,#102,#103,3.);
#105=IFCSHAPEREPRESENTATION(#7,'Body','SweptSolid',(#104));
#106=IFCCARTESIANPOINT((6.,5.,0.));
#107=IFCDIRECTION((0.,0.,1.));
#108=IFCDIRECTION((1.,0.,0.));
#109=IFCAXIS2PLACEMENT3D(#106,#107,#108);
#110=IFCLOCALPLACEMENT(#19,#109);
#111=IFCPRODUCTDEFINITIONSHAPE($,$,(#105));
#112=IFCBUILDINGELEMENTPROXY('1axo0ByyTGMByMG77zLO0m',$,'panel-6-1',$,'SYNTHETIC',#110,#111,$,$);
#113=IFCRECTANGLEPROFILEDEF(.AREA.,$,$,0.20000000000000001,1.5999999999999996);
#114=IFCCARTESIANPOINT((0.,0.,0.));
#115=IFCDIRECTION((0.,0.,1.));
#116=IFCDIRECTION((1.,0.,0.));
#117=IFCAXIS2PLACEMENT3D(#114,#115,#116);
#118=IFCDIRECTION((0.,0.,1.));
#119=IFCEXTRUDEDAREASOLID(#113,#117,#118,3.);
#120=IFCSHAPEREPRESENTATION(#7,'Body','SweptSolid',(#119));
#121=IFCCARTESIANPOINT((6.,6.5,0.));
#122=IFCDIRECTION((0.,0.,1.));
#123=IFCDIRECTION((1.,0.,0.));
#124=IFCAXIS2PLACEMENT3D(#121,#122,#123);
#125=IFCLOCALPLACEMENT(#19,#124);
#126=IFCPRODUCTDEFINITIONSHAPE($,$,(#120));
#127=IFCBUILDINGELEMENTPROXY('1WzF3a9qDSCPJa2$7eU97O',$,'wall-6-2',$,'SYNTHETIC',#125,#126,$,$);
#128=IFCRECTANGLEPROFILEDEF(.AREA.,$,$,0.20000000000000001,1.3999999999999999);
#129=IFCCARTESIANPOINT((0.,0.,0.));
#130=IFCDIRECTION((0.,0.,1.));
#131=IFCDIRECTION((1.,0.,0.));
#132=IFCAXIS2PLACEMENT3D(#129,#130,#131);
#133=IFCDIRECTION((0.,0.,1.));
#134=IFCEXTRUDEDAREASOLID(#128,#132,#133,3.);
#135=IFCSHAPEREPRESENTATION(#7,'Body','SweptSolid',(#134));
#136=IFCCARTESIANPOINT((6.,8.,0.));
#137=IFCDIRECTION((0.,0.,1.));
#138=IFCDIRECTION((1.,0.,0.));
#139=IFCAXIS2PLACEMENT3D(#136,#137,#138);
#140=IFCLOCALPLACEMENT(#19,#139);
#141=IFCPRODUCTDEFINITIONSHAPE($,$,(#135));
#142=IFCBUILDINGELEMENTPROXY('3UshUCN61KfxaoDcZohjKf',$,'panel-6-2',$,'SYNTHETIC',#140,#141,$,$);
#143=IFCRECTANGLEPROFILEDEF(.AREA.,$,$,0.20000000000000001,1.3000000000000007);
#144=IFCCARTESIANPOINT((0.,0.,0.));
#145=IFCDIRECTION((0.,0.,1.));
#146=IFCDIRECTION((1.,0.,0.));
#147=IFCAXIS2PLACEMENT3D(#144,#145,#146);
#148=IFCDIRECTION((0.,0.,1.));
#149=IFCEXTRUDEDAREASOLID(#143,#147,#148,3.);
#150=IFCSHAPEREPRESENTATION(#7,'Body','SweptSolid',(#149));
#151=IFCCARTESIANPOINT((6.,9.3499999999999996,0.));
#152=IFCDIRECTION((0.,0.,1.));
#153=IFCDIRECTION((1.,0.,0.));
#154=IFCAXIS2PLACEMENT3D(#151,#152,#153);
#155=IFCLOCALPLACEMENT(#19,#154);
#156=IFCPRODUCTDEFINITIONSHAPE($,$,(#150));
#157=IFCBUILDINGELEMENTPROXY('21z6cP2Q5NTA3x2t89PCxU',$,'wall-6-end',$,'SYNTHETIC',#155,#156,$,$);
#158=IFCRELCONTAINEDINSPATIALSTRUCTURE('3Py_QyzejGvBTTDfvCHEuj',$,$,$,(#37,#52,#67,#82,#97,#112,#127,#142,#157),#20);
ENDSEC;
END-ISO-10303-21;
