ISO-10303-21;
HEADER;
FILE_DESCRIPTION(('ViewDefinition [CoordinationView]'),'2;1');
FILE_NAME('','2026-09-18T12:01:18',(''),(''),'IfcOpenShell 0.8.5-1c5b825','IfcOpenShell 0.8.5-1c5b825','');
FILE_SCHEMA(('IFC4'));
ENDSEC;
DATA;
#1=IFCSIUNIT(*,.LENGTHUNIT.,.MILLI.,.METRE.);
#2=IFCUNITASSIGNMENT((#1));
#3=IFCCARTESIANPOINT((0.,0.,0.));
#4=IFCDIRECTION((0.,0.,1.));
#5=IFCDIRECTION((1.,0.,0.));
#6=IFCAXIS2PLACEMENT3D(#3,#4,#5);
#7=IFCGEOMETRICREPRESENTATIONCONTEXT('Model','Model',3,9.9999999999999995E-08,#6,$);
#8=IFCPROJECT('0c3gqPKn1KSO8GVltlhsl4',$,'units_transform',$,$,$,$,(#7),#2);
#9=IFCCARTESIANPOINT((100000.,200000.,0.));
#10=IFCDIRECTION((0.,0.,1.));
#11=IFCDIRECTION((1.,0.,0.));
#12=IFCAXIS2PLACEMENT3D(#9,#10,#11);
#13=IFCLOCALPLACEMENT($,#12);
#14=IFCBUILDING('1a64aoayPPWxQPeUgoWILv',$,'Synthetic building',$,$,#13,$,$,$,$,$,$);
#15=IFCCARTESIANPOINT((0.,0.,0.));
#16=IFCDIRECTION((0.,0.,1.));
#17=IFCDIRECTION((0.86602540378443871,0.49999999999999994,0.));
#18=IFCAXIS2PLACEMENT3D(#15,#16,#17);
#19=IFCLOCALPLACEMENT(#13,#18);
#20=IFCBUILDINGSTOREY('2tERdonhzRzBoORxfT572M',$,'Synthetic level',$,$,#19,$,$,$,$);
#21=IFCRELAGGREGATES('2h$kvuehrUVxxvac2y0BGu',$,$,$,#8,(#14));
#22=IFCRELAGGREGATES('2b_jfErkPTAQr90tZcsP5k',$,$,$,#14,(#20));
#23=IFCRECTANGLEPROFILEDEF(.AREA.,$,$,12000.,10000.);
#24=IFCCARTESIANPOINT((0.,0.,0.));
#25=IFCDIRECTION((0.,0.,1.));
#26=IFCDIRECTION((1.,0.,0.));
#27=IFCAXIS2PLACEMENT3D(#24,#25,#26);
#28=IFCDIRECTION((0.,0.,1.));
#29=IFCEXTRUDEDAREASOLID(#23,#27,#28,100.);
#30=IFCSHAPEREPRESENTATION(#7,'Body','SweptSolid',(#29));
#31=IFCCARTESIANPOINT((6000.,5000.,-100.));
#32=IFCDIRECTION((0.,0.,1.));
#33=IFCDIRECTION((1.,0.,0.));
#34=IFCAXIS2PLACEMENT3D(#31,#32,#33);
#35=IFCLOCALPLACEMENT(#19,#34);
#36=IFCPRODUCTDEFINITIONSHAPE($,$,(#30));
#37=IFCBUILDINGELEMENTPROXY('3sf$ErEULNufSM7mf2J3gC',$,'floor',$,'SYNTHETIC',#35,#36,$,$);
#38=IFCRECTANGLEPROFILEDEF(.AREA.,$,$,1800.,800.);
#39=IFCCARTESIANPOINT((0.,0.,0.));
#40=IFCDIRECTION((0.,0.,1.));
#41=IFCDIRECTION((1.,0.,0.));
#42=IFCAXIS2PLACEMENT3D(#39,#40,#41);
#43=IFCDIRECTION((0.,0.,1.));
#44=IFCEXTRUDEDAREASOLID(#38,#42,#43,1400.);
#45=IFCSHAPEREPRESENTATION(#7,'Body','SweptSolid',(#44));
#46=IFCCARTESIANPOINT((1500.,5000.,0.));
#47=IFCDIRECTION((0.,0.,1.));
#48=IFCDIRECTION((1.,0.,0.));
#49=IFCAXIS2PLACEMENT3D(#46,#47,#48);
#50=IFCLOCALPLACEMENT(#19,#49);
#51=IFCPRODUCTDEFINITIONSHAPE($,$,(#45));
#52=IFCBUILDINGELEMENTPROXY('1dHAnLGBbSb8JC1BzSdnaA',$,'equipment',$,'SYNTHETIC',#50,#51,$,$);
#53=IFCRECTANGLEPROFILEDEF(.AREA.,$,$,200.,1300.);
#54=IFCCARTESIANPOINT((0.,0.,0.));
#55=IFCDIRECTION((0.,0.,1.));
#56=IFCDIRECTION((1.,0.,0.));
#57=IFCAXIS2PLACEMENT3D(#54,#55,#56);
#58=IFCDIRECTION((0.,0.,1.));
#59=IFCEXTRUDEDAREASOLID(#53,#57,#58,3000.);
#60=IFCSHAPEREPRESENTATION(#7,'Body','SweptSolid',(#59));
#61=IFCCARTESIANPOINT((4000.,650.,0.));
#62=IFCDIRECTION((0.,0.,1.));
#63=IFCDIRECTION((1.,0.,0.));
#64=IFCAXIS2PLACEMENT3D(#61,#62,#63);
#65=IFCLOCALPLACEMENT(#19,#64);
#66=IFCPRODUCTDEFINITIONSHAPE($,$,(#60));
#67=IFCBUILDINGELEMENTPROXY('0aEUDYa5nJZxZB1Kie7HdS',$,'wall-4-0',$,'SYNTHETIC',#65,#66,$,$);
#68=IFCRECTANGLEPROFILEDEF(.AREA.,$,$,200.,1400.);
#69=IFCCARTESIANPOINT((0.,0.,0.));
#70=IFCDIRECTION((0.,0.,1.));
#71=IFCDIRECTION((1.,0.,0.));
#72=IFCAXIS2PLACEMENT3D(#69,#70,#71);
#73=IFCDIRECTION((0.,0.,1.));
#74=IFCEXTRUDEDAREASOLID(#68,#72,#73,3000.);
#75=IFCSHAPEREPRESENTATION(#7,'Body','SweptSolid',(#74));
#76=IFCCARTESIANPOINT((4000.,2000.,0.));
#77=IFCDIRECTION((0.,0.,1.));
#78=IFCDIRECTION((1.,0.,0.));
#79=IFCAXIS2PLACEMENT3D(#76,#77,#78);
#80=IFCLOCALPLACEMENT(#19,#79);
#81=IFCPRODUCTDEFINITIONSHAPE($,$,(#75));
#82=IFCBUILDINGELEMENTPROXY('3Zt4QCS45J5gLtNxg8bw9t',$,'panel-4-0',$,'SYNTHETIC',#80,#81,$,$);
#83=IFCRECTANGLEPROFILEDEF(.AREA.,$,$,200.,1599.9999999999995);
#84=IFCCARTESIANPOINT((0.,0.,0.));
#85=IFCDIRECTION((0.,0.,1.));
#86=IFCDIRECTION((1.,0.,0.));
#87=IFCAXIS2PLACEMENT3D(#84,#85,#86);
#88=IFCDIRECTION((0.,0.,1.));
#89=IFCEXTRUDEDAREASOLID(#83,#87,#88,3000.);
#90=IFCSHAPEREPRESENTATION(#7,'Body','SweptSolid',(#89));
#91=IFCCARTESIANPOINT((4000.,3500.,0.));
#92=IFCDIRECTION((0.,0.,1.));
#93=IFCDIRECTION((1.,0.,0.));
#94=IFCAXIS2PLACEMENT3D(#91,#92,#93);
#95=IFCLOCALPLACEMENT(#19,#94);
#96=IFCPRODUCTDEFINITIONSHAPE($,$,(#90));
#97=IFCBUILDINGELEMENTPROXY('0S3vjmFyTGVQcoAr6xPnbB',$,'wall-4-1',$,'SYNTHETIC',#95,#96,$,$);
#98=IFCRECTANGLEPROFILEDEF(.AREA.,$,$,200.,1400.);
#99=IFCCARTESIANPOINT((0.,0.,0.));
#100=IFCDIRECTION((0.,0.,1.));
#101=IFCDIRECTION((1.,0.,0.));
#102=IFCAXIS2PLACEMENT3D(#99,#100,#101);
#103=IFCDIRECTION((0.,0.,1.));
#104=IFCEXTRUDEDAREASOLID(#98,#102,#103,3000.);
#105=IFCSHAPEREPRESENTATION(#7,'Body','SweptSolid',(#104));
#106=IFCCARTESIANPOINT((4000.,5000.,0.));
#107=IFCDIRECTION((0.,0.,1.));
#108=IFCDIRECTION((1.,0.,0.));
#109=IFCAXIS2PLACEMENT3D(#106,#107,#108);
#110=IFCLOCALPLACEMENT(#19,#109);
#111=IFCPRODUCTDEFINITIONSHAPE($,$,(#105));
#112=IFCBUILDINGELEMENTPROXY('3$hQXplLvShfZ8DUO3$Y65',$,'panel-4-1',$,'SYNTHETIC',#110,#111,$,$);
#113=IFCRECTANGLEPROFILEDEF(.AREA.,$,$,200.,1599.9999999999995);
#114=IFCCARTESIANPOINT((0.,0.,0.));
#115=IFCDIRECTION((0.,0.,1.));
#116=IFCDIRECTION((1.,0.,0.));
#117=IFCAXIS2PLACEMENT3D(#114,#115,#116);
#118=IFCDIRECTION((0.,0.,1.));
#119=IFCEXTRUDEDAREASOLID(#113,#117,#118,3000.);
#120=IFCSHAPEREPRESENTATION(#7,'Body','SweptSolid',(#119));
#121=IFCCARTESIANPOINT((4000.,6500.,0.));
#122=IFCDIRECTION((0.,0.,1.));
#123=IFCDIRECTION((1.,0.,0.));
#124=IFCAXIS2PLACEMENT3D(#121,#122,#123);
#125=IFCLOCALPLACEMENT(#19,#124);
#126=IFCPRODUCTDEFINITIONSHAPE($,$,(#120));
#127=IFCBUILDINGELEMENTPROXY('2VJ9Uv2ZDPx8TQi4Fx0XO2',$,'wall-4-2',$,'SYNTHETIC',#125,#126,$,$);
#128=IFCRECTANGLEPROFILEDEF(.AREA.,$,$,200.,1400.);
#129=IFCCARTESIANPOINT((0.,0.,0.));
#130=IFCDIRECTION((0.,0.,1.));
#131=IFCDIRECTION((1.,0.,0.));
#132=IFCAXIS2PLACEMENT3D(#129,#130,#131);
#133=IFCDIRECTION((0.,0.,1.));
#134=IFCEXTRUDEDAREASOLID(#128,#132,#133,3000.);
#135=IFCSHAPEREPRESENTATION(#7,'Body','SweptSolid',(#134));
#136=IFCCARTESIANPOINT((4000.,8000.,0.));
#137=IFCDIRECTION((0.,0.,1.));
#138=IFCDIRECTION((1.,0.,0.));
#139=IFCAXIS2PLACEMENT3D(#136,#137,#138);
#140=IFCLOCALPLACEMENT(#19,#139);
#141=IFCPRODUCTDEFINITIONSHAPE($,$,(#135));
#142=IFCBUILDINGELEMENTPROXY('2Ot4SD95bQFwtkPklwNrhN',$,'panel-4-2',$,'SYNTHETIC',#140,#141,$,$);
#143=IFCRECTANGLEPROFILEDEF(.AREA.,$,$,200.,1300.0000000000007);
#144=IFCCARTESIANPOINT((0.,0.,0.));
#145=IFCDIRECTION((0.,0.,1.));
#146=IFCDIRECTION((1.,0.,0.));
#147=IFCAXIS2PLACEMENT3D(#144,#145,#146);
#148=IFCDIRECTION((0.,0.,1.));
#149=IFCEXTRUDEDAREASOLID(#143,#147,#148,3000.);
#150=IFCSHAPEREPRESENTATION(#7,'Body','SweptSolid',(#149));
#151=IFCCARTESIANPOINT((4000.,9350.,0.));
#152=IFCDIRECTION((0.,0.,1.));
#153=IFCDIRECTION((1.,0.,0.));
#154=IFCAXIS2PLACEMENT3D(#151,#152,#153);
#155=IFCLOCALPLACEMENT(#19,#154);
#156=IFCPRODUCTDEFINITIONSHAPE($,$,(#150));
#157=IFCBUILDINGELEMENTPROXY('1VqE2m8R9KA8EQE9O_GvPo',$,'wall-4-end',$,'SYNTHETIC',#155,#156,$,$);
#158=IFCRECTANGLEPROFILEDEF(.AREA.,$,$,200.,1300.);
#159=IFCCARTESIANPOINT((0.,0.,0.));
#160=IFCDIRECTION((0.,0.,1.));
#161=IFCDIRECTION((1.,0.,0.));
#162=IFCAXIS2PLACEMENT3D(#159,#160,#161);
#163=IFCDIRECTION((0.,0.,1.));
#164=IFCEXTRUDEDAREASOLID(#158,#162,#163,3000.);
#165=IFCSHAPEREPRESENTATION(#7,'Body','SweptSolid',(#164));
#166=IFCCARTESIANPOINT((8000.,650.,0.));
#167=IFCDIRECTION((0.,0.,1.));
#168=IFCDIRECTION((1.,0.,0.));
#169=IFCAXIS2PLACEMENT3D(#166,#167,#168);
#170=IFCLOCALPLACEMENT(#19,#169);
#171=IFCPRODUCTDEFINITIONSHAPE($,$,(#165));
#172=IFCBUILDINGELEMENTPROXY('21PAFRJ$zMZve4WRAsg$AN',$,'wall-8-0',$,'SYNTHETIC',#170,#171,$,$);
#173=IFCRECTANGLEPROFILEDEF(.AREA.,$,$,200.,1400.);
#174=IFCCARTESIANPOINT((0.,0.,0.));
#175=IFCDIRECTION((0.,0.,1.));
#176=IFCDIRECTION((1.,0.,0.));
#177=IFCAXIS2PLACEMENT3D(#174,#175,#176);
#178=IFCDIRECTION((0.,0.,1.));
#179=IFCEXTRUDEDAREASOLID(#173,#177,#178,3000.);
#180=IFCSHAPEREPRESENTATION(#7,'Body','SweptSolid',(#179));
#181=IFCCARTESIANPOINT((8000.,2000.,0.));
#182=IFCDIRECTION((0.,0.,1.));
#183=IFCDIRECTION((1.,0.,0.));
#184=IFCAXIS2PLACEMENT3D(#181,#182,#183);
#185=IFCLOCALPLACEMENT(#19,#184);
#186=IFCPRODUCTDEFINITIONSHAPE($,$,(#180));
#187=IFCBUILDINGELEMENTPROXY('3hATThCO1UfwHSQ0l8fdpo',$,'panel-8-0',$,'SYNTHETIC',#185,#186,$,$);
#188=IFCRECTANGLEPROFILEDEF(.AREA.,$,$,200.,1599.9999999999995);
#189=IFCCARTESIANPOINT((0.,0.,0.));
#190=IFCDIRECTION((0.,0.,1.));
#191=IFCDIRECTION((1.,0.,0.));
#192=IFCAXIS2PLACEMENT3D(#189,#190,#191);
#193=IFCDIRECTION((0.,0.,1.));
#194=IFCEXTRUDEDAREASOLID(#188,#192,#193,3000.);
#195=IFCSHAPEREPRESENTATION(#7,'Body','SweptSolid',(#194));
#196=IFCCARTESIANPOINT((8000.,3500.,0.));
#197=IFCDIRECTION((0.,0.,1.));
#198=IFCDIRECTION((1.,0.,0.));
#199=IFCAXIS2PLACEMENT3D(#196,#197,#198);
#200=IFCLOCALPLACEMENT(#19,#199);
#201=IFCPRODUCTDEFINITIONSHAPE($,$,(#195));
#202=IFCBUILDINGELEMENTPROXY('2Q5TrnAx5K2Oub9xO093du',$,'wall-8-1',$,'SYNTHETIC',#200,#201,$,$);
#203=IFCRECTANGLEPROFILEDEF(.AREA.,$,$,200.,1400.);
#204=IFCCARTESIANPOINT((0.,0.,0.));
#205=IFCDIRECTION((0.,0.,1.));
#206=IFCDIRECTION((1.,0.,0.));
#207=IFCAXIS2PLACEMENT3D(#204,#205,#206);
#208=IFCDIRECTION((0.,0.,1.));
#209=IFCEXTRUDEDAREASOLID(#203,#207,#208,3000.);
#210=IFCSHAPEREPRESENTATION(#7,'Body','SweptSolid',(#209));
#211=IFCCARTESIANPOINT((8000.,5000.,0.));
#212=IFCDIRECTION((0.,0.,1.));
#213=IFCDIRECTION((1.,0.,0.));
#214=IFCAXIS2PLACEMENT3D(#211,#212,#213);
#215=IFCLOCALPLACEMENT(#19,#214);
#216=IFCPRODUCTDEFINITIONSHAPE($,$,(#210));
#217=IFCBUILDINGELEMENTPROXY('0gt5wEALbR3AktDrYZmEXS',$,'panel-8-1',$,'SYNTHETIC',#215,#216,$,$);
#218=IFCRECTANGLEPROFILEDEF(.AREA.,$,$,200.,1599.9999999999995);
#219=IFCCARTESIANPOINT((0.,0.,0.));
#220=IFCDIRECTION((0.,0.,1.));
#221=IFCDIRECTION((1.,0.,0.));
#222=IFCAXIS2PLACEMENT3D(#219,#220,#221);
#223=IFCDIRECTION((0.,0.,1.));
#224=IFCEXTRUDEDAREASOLID(#218,#222,#223,3000.);
#225=IFCSHAPEREPRESENTATION(#7,'Body','SweptSolid',(#224));
#226=IFCCARTESIANPOINT((8000.,6500.,0.));
#227=IFCDIRECTION((0.,0.,1.));
#228=IFCDIRECTION((1.,0.,0.));
#229=IFCAXIS2PLACEMENT3D(#226,#227,#228);
#230=IFCLOCALPLACEMENT(#19,#229);
#231=IFCPRODUCTDEFINITIONSHAPE($,$,(#225));
#232=IFCBUILDINGELEMENTPROXY('3imiJOSKTHEAATfxH_zMDp',$,'wall-8-2',$,'SYNTHETIC',#230,#231,$,$);
#233=IFCRECTANGLEPROFILEDEF(.AREA.,$,$,200.,1400.);
#234=IFCCARTESIANPOINT((0.,0.,0.));
#235=IFCDIRECTION((0.,0.,1.));
#236=IFCDIRECTION((1.,0.,0.));
#237=IFCAXIS2PLACEMENT3D(#234,#235,#236);
#238=IFCDIRECTION((0.,0.,1.));
#239=IFCEXTRUDEDAREASOLID(#233,#237,#238,3000.);
#240=IFCSHAPEREPRESENTATION(#7,'Body','SweptSolid',(#239));
#241=IFCCARTESIANPOINT((8000.,8000.,0.));
#242=IFCDIRECTION((0.,0.,1.));
#243=IFCDIRECTION((1.,0.,0.));
#244=IFCAXIS2PLACEMENT3D(#241,#242,#243);
#245=IFCLOCALPLACEMENT(#19,#244);
#246=IFCPRODUCTDEFINITIONSHAPE($,$,(#240));
#247=IFCBUILDINGELEMENTPROXY('3nnEeIx1TREQ75kHxhDU4Z',$,'panel-8-2',$,'SYNTHETIC',#245,#246,$,$);
#248=IFCRECTANGLEPROFILEDEF(.AREA.,$,$,200.,1300.0000000000007);
#249=IFCCARTESIANPOINT((0.,0.,0.));
#250=IFCDIRECTION((0.,0.,1.));
#251=IFCDIRECTION((1.,0.,0.));
#252=IFCAXIS2PLACEMENT3D(#249,#250,#251);
#253=IFCDIRECTION((0.,0.,1.));
#254=IFCEXTRUDEDAREASOLID(#248,#252,#253,3000.);
#255=IFCSHAPEREPRESENTATION(#7,'Body','SweptSolid',(#254));
#256=IFCCARTESIANPOINT((8000.,9350.,0.));
#257=IFCDIRECTION((0.,0.,1.));
#258=IFCDIRECTION((1.,0.,0.));
#259=IFCAXIS2PLACEMENT3D(#256,#257,#258);
#260=IFCLOCALPLACEMENT(#19,#259);
#261=IFCPRODUCTDEFINITIONSHAPE($,$,(#255));
#262=IFCBUILDINGELEMENTPROXY('0wG4QXCb9MSwdgXCUT5ekL',$,'wall-8-end',$,'SYNTHETIC',#260,#261,$,$);
#263=IFCRELCONTAINEDINSPATIALSTRUCTURE('1XmjGo9tPUXeVHACZyUNX2',$,$,$,(#37,#52,#67,#82,#97,#112,#127,#142,#157,#172,#187,#202,#217,#232,#247,#262),#20);
ENDSEC;
END-ISO-10303-21;
